<?xml version="1.0" encoding="utf-8"?>
<svg viewBox="0 0 1561 438" style="fill-rule:evenodd;clip-rule:evenodd;stroke-linecap:round;stroke-linejoin:round;stroke-miterlimit:1.5" xmlns="http://www.w3.org/2000/svg">
  <path d="M915.4 310c-24.7-5.8-43.7-17.5-55.9-34.5-5.3-7.5-11.357-19.863-12.4-23.3-3.85-12.682-.4-61.5.9-67.9 6.2-29.9 25.2-51.9 53.4-61.6 8.3-2.8 10.2-3.1 21.1-3.1 24.4.1 42.5 8.1 61.8 27.6 7.6 7.6 10.5 11.4 12.9 16.6 1.7 3.7 4.1 8.3 5.3 10.2 3.3 5.4 6.5 20 7.2 33 .5 10 .4 11.8-1.1 13.2-4 4.1-19.4 5.8-51.6 5.8-21.5.1-54.2-1.4-55.9-2.4-.4-.3-1.7.1-2.7.9-1.6 1.1-1.9 2.5-1.8 8.2.2 8.1 1.6 11.2 7.6 16.9 5.8 5.5 9.8 7.8 19.2 10.8 10.2 3.4 15.2 3.4 20.1 0 4.8-3.2 6.6-5.5 10.5-12.5 3.6-6.8 5.3-7.6 17.5-8.3 5-.4 13.2-1.1 18.3-1.7 11.8-1.5 20-.8 21.8 1.6 4 5.5-3.99 27.708-12 38.5-8.75 11.783-26.467 26.867-40.5 32.2-13.617 5.175-32.4 2.4-43.7-.2Zm37.901-121.205c6.999-3.55 7.1-5.8 1-11.5-2.6-2.3-7.8-5.9-11.6-7.9-9.5-5-16.4-5.1-24.7-.4-9.3 5.2-14.9 12.1-12.5 15.4 1.9 2.6 7.7 5.7 12.1 6.5 2.6.5 10.6.8 17.7.6 11.5-.2 13.6-.5 18-2.7Z" style="fill-rule: nonzero; fill: rgb(255, 255, 255);" transform="translate(-9.911 -17.817) scale(1.33829)"/>
  <path d="M915.4 310c-24.7-5.8-43.7-17.5-55.9-34.5-5.3-7.5-10.857-18.587-12.401-23.494-.783-2.491-1.136-5.539-1.25-7.344 0 0 4.186-1.531 6.322-3.529 2.321-2.172 5.349-6.815 7.25-7.309 4.225-1.099 8.042 11.325 8.902 11.847.861.522 9.805.825 10.691-.2 4.392-5.085 11.414-9.326 14.417-5.232 1.81 2.468 4.106 6.779 6.726 7.862.949.392 2.17-.069 2.17-.069s2.413 2.076 2.586 2.236c5.428 5.024 9.477 7.256 18.487 10.132 10.2 3.4 15.2 3.4 20.1 0 3.645-2.43 5.56-4.341 7.978-8.185.767-1.218 6.142.883 13.775-2.699 11.122-5.218 12.184-9.464 15.998-6.703 4.475 3.241 6.36 2.195 12.593 2.511 10.536.535 11.466-8.111 15.086-6.972 1.2.38 2.22.548 2.67 1.148 4 5.5-3.99 27.708-12 38.5-8.75 11.783-26.467 26.867-40.5 32.2-13.617 5.175-32.4 2.4-43.7-.2Z" style="fill-rule: nonzero; fill: rgb(255, 255, 255);" transform="translate(-9.911 -17.817) scale(1.33829)"/>
  <path d="M1006.3 184.38c.26 1.016-6.02-5.028-12.301-3.604-12.716 2.881-10.811 8.243-15.902 9.097-6.131 1.029-10.615-10.838-11.239-8.061-.977 4.35-3.023 8.96-9.377 4.415-.354-.253 2.028-1.02.895-3.992-2.081-5.456-20.19-18.073-30.524-16.627-11.425 1.598-24.413 12.927-22.688 18.177.762 2.32.473 6.536-5.126 6.309-10.029-.269-10.653-10.418-17.871-9.267-6.782 1.082-10.575 11.345-14.941 14.954-2.681 2.217-5.067-8.685-12.463-8.772-3.062-.036-4.315 2.396-5.671 3.659-.755.703-1.692.557-1.669.138.176-3.178.37-5.487.577-6.506 6.2-29.9 25.2-51.9 53.4-61.6 8.3-2.8 10.2-3.1 21.1-3.1 24.4.1 42.5 8.1 61.8 27.6 7.6 7.6 10.5 11.4 12.9 16.6 1.7 3.7 4.1 8.3 5.3 10.2 1.34 2.188 2.66 5.888 3.8 10.38Z" style="fill-rule: nonzero; fill: rgb(255, 255, 255);" transform="translate(-9.911 -17.817) scale(1.33829)"/>
  <path d="M846 189.4c1.264 9.922 1.132 17.789.485 33.835-.662 16.429-2.878 31.338-3.485 33.665-3.1 12.2-6.9 19.8-12.6 25.4-7.6 7.3-13.9 9.6-23 8.2-4-.6-5.5-1.6-11.3-7.3-8.2-8.2-11.7-15.1-12.5-24.7-.7-7.2.1-13.7 4.8-37.8 1.3-7.1 2.8-17.2 3.1-22.6.7-9.2.6-10-1.9-14.9-4.5-8.9-9.5-8.9-11.1.1-2.1 11.7-10.5 43.7-12.6 48.2-4.8 10.2-12.2 12.6-19.8 6.6-3.8-3-11.9-14.6-23.4-33.1-2.5-4.2-6.3-9.5-8.3-11.9-3.3-3.8-3.8-4.1-5.2-2.7-2 2-3.875 11.728-1.2 20.2 1.2 3.8 12.1 24.4 14.5 27.4 1.3 1.6 5.7 10.1 9.6 18.5 4.4 9.4 3.4 25.7-2.2 36.8-3 5.9-9.6 12.5-14.8 14.8-6 2.7-18.8 3.1-24.4.6-5.1-2.2-14.5-11.9-18.3-18.7-8.3-14.8-14.7-37-16.5-57-3.3-35.5 5.8-74.3 20.8-89.4 8.3-8.3 20.3-13.6 31.1-13.6 6 0 7.5.4 13.1 3.8 3.5 2 8.2 5.9 10.5 8.6 6.1 7.3 7.175 9.6 9.6 9.6s3.906-5.483 6.035-11.736c1.947-5.718 1.638-8.837 5.965-13.164 8.5-8.5 35.3-11.6 50-5.9 14.6 5.7 28.9 22.7 35.9 42.5 2.6 7.3 5.977 16.884 7.1 25.7Z" style="fill-rule: nonzero; fill: rgb(255, 255, 255);" transform="translate(-9.911 -17.817) scale(1.33829)"/>
  <path d="M784.747 240.624c.223-1.397 4.268 5.759 10.39 8.654 1.309.619 8.54-10.116 18.424-10.15 3.629-.012 6.262.549 12.942 10.063 1.293 1.841 5.746 2.184 11.71.057 4.835-1.724 6.634-4.976 6.581-4.514-.737 6.399-1.48 10.963-1.794 12.166-3.1 12.2-6.9 19.8-12.6 25.4-7.6 7.3-13.9 9.6-23 8.2-4-.6-5.5-1.6-11.3-7.3-8.2-8.2-11.7-15.1-12.5-24.7-.45-4.628-.28-8.967 1.147-17.876ZM672.4 290c-6.066-10.816-14.129-40.744-14.129-40.744 4.158 1.817 6.422 2.613 8.758.796 2.715-2.112 4.814-10.302 8.632-8.659 3.071 1.323 6.941 8.938 9.564 10.181 3.969 1.881 6.814-7.221 10.702-7.483 8.394-.568 13.621 1.704 16.624-3.176 2.205-3.583 6.618-1.647 7.195-1.167 2.656 2.21 3.175 9.702 7.156 10.547 1.454.308 1.751-.989 1.751-.989s2.311 4.747 3.447 7.194c4.4 9.4 3.4 25.7-2.2 36.8-3 5.9-9.6 12.5-14.8 14.8-6 2.7-18.8 3.1-24.4.6-5.1-2.2-14.5-11.9-18.3-18.7Z" style="fill-rule: nonzero; fill: rgb(255, 255, 255);" transform="translate(-9.911 -17.817) scale(1.33829)"/>
  <path d="M844.298 180.688c.061.278-2.636 1.812-3.53 2.855-3.3 3.852-.979 11.223-4.274 13.109-2.888 1.653-5.201-.474-5.658-.881-4.244-3.778-8.462-14.295-17.75-13.737-7.728.464-12.364 9.318-17.533 8.268-3.18-.646-5.503-6.221-5.953-7.102-2.558-5.058-4.807-6.836-7.064-6.527-.72.099-2.413 1.077-3.444 4.196-.102.568-1.864-1.343-2.856-.181-3.46 4.052-4.494 1.607-5.121 2.417-2.287 2.953-4.424 3.003-6.763 2.549-2.709-.526-4.524-5.11-4.524-5.11-.497 4.642-.771 12.399-7.585 7.37-3.916-2.891-6.778-6.91-11.314-7.073-6.826-.244-14.159 3.893-14.27 7.122-.259 7.521-3.595 7.549-4.229 7.526-3.782-.135-8.137-6.378-9.609-8.27-1.789-2.299-10.147-9.299-12.872-7.914-9.563 4.861-2.631 10.453-6.977 16.275-1.142 1.529-4.929 2.004-7.781.25-4.288-2.637-7.837-8.48-8.079-8.737-2.608-2.763-4.556-2.777-6.884-4.041-1.654-.898-3.287-2.634-3.768-4.401-.377-1.386-6.486-.221-6.486-.221s3.848-13.178 6.34-18.728c2.988-6.652 6.488-12.178 10.386-16.102 8.3-8.3 20.3-13.6 31.1-13.6 6 0 7.5.4 13.1 3.8 3.5 2 8.2 5.9 10.5 8.6 6.1 7.3 7.127 9.6 9.6 9.6s3.902-5.472 6.091-11.896c1.942-5.699 1.696-8.791 5.909-13.004 8.5-8.5 35.3-11.6 50-5.9 14.6 5.7 28.9 22.7 35.9 42.5 2.6 7.3 3.301 7.434 5.398 16.988Z" style="fill-rule: nonzero; fill: rgb(255, 255, 255);" transform="translate(-9.911 -17.817) scale(1.33829)"/>
  <g>
    <path d="M572 312.9c-9.5-1-23-4.1-30.5-7.1-28.7-11.2-44.3-25.9-47.5-44.9-2.6-15.1 1.4-26.9 14.9-44.8 3.9-5.1 15.1-13.6 23.3-17.6 6.3-3.1 8.6-3.7 17-4.2 9.3-.5 10.1-.4 18 2.6 4.6 1.8 10.8 4.6 14 6.2 3.1 1.6 7.6 3.2 10 3.5 4 .6 4.6.3 8.8-3.4 4.3-3.8 4.5-4.2 4.4-9.4-.1-3-.9-7-1.8-8.9-2.1-4.4-10.6-13.9-15.5-17.3-3.7-2.6-4.2-2.7-9.7-1.7-3.2.6-7.6 2-9.8 3.2-4.7 2.4-10.917 7.9-14.6 10.9-2.669 2.174-3.4 3.6-7.5 7.1-6.3 5.4-8.5 6.6-13.3 7.6-5.8 1.1-14.2.4-18-1.6-6.6-3.6-10.5-13.3-10.6-26.6-.1-5.2.3-6.6 3.2-10.8 5.3-7.6 11-12.2 21.7-17.6 10.5-5.3 25.974-10.713 33-12.5 2.609-.664 9.304-2.28 14-3.1 22.837-3.986 35.9-1.5 43.4 4.6 2.3 1.9 6 5.8 8.2 8.7 4.8 6.3 10.436 14.462 13.9 22.6 3.817 8.967 6.7 19.4 9 31.2 1.9 9.9 2.1 13.9 1.7 34.5-.4 25.3-.9 29.1-6.7 46-5 14.3-8.6 20.6-16.4 28.5-11.1 11.1-18.5 14.1-36.6 14.8-6.3.3-15.3.1-20-.5Zm-4.245-44.375c7.755 2.799 15.596 3.002 20.144 1.054 1.58-.677 3.265-2.642 4.324-6.666.203-.77.101-1.399.081-1.592-.367-3.609-3.165-7.851-8.496-12.566-10.8-9.7-19.798-10.565-27.798-3.165-3.562 3.288-4.974 6.047-4.767 8.689.095 1.214.639 2.644 1.291 3.815 2.93 5.262 7.764 7.739 15.221 10.431Z" style="fill-rule: nonzero; fill: rgb(255, 255, 255);" transform="translate(-9.911 -17.817) scale(1.33829)"/>
    <path d="M572 312.9c-9.5-1-23-4.1-30.5-7.1-28.7-11.2-44.3-25.9-47.5-44.9-.859-4.989-.311-14.225-.311-14.225s1.636 2.265 7.719-5.294c6.07-7.545 10.129 9.262 17.062 9.403 2.595.053 9.113.699 19.348-10.289 4.333-4.652 10.33-2.806 9.901 1.59-.769 7.888 3.464 12.189 3.464 12.189s.985 5.423 5.092 8.435c6.461 4.738 18.478 9.818 30.08 7.441 3.871-.792 5.374-4.902 5.864-7.456.771-4.011-3.95-9.393-3.95-9.393s3.768.774 7.184-1.129c5.066-2.822 10.894-13.559 17.939-20.778 5.682-5.82 13.338 2.309 11.538 10.455-.321 1.45 3.403 5.975 4.506 6.152 1.156.185 5.762-5.496 11.424-6.911 5.932-1.482 10.268 1.646 10.224 2.28-.691 9.966-2.198 15.408-6.084 26.73-5 14.3-8.6 20.6-16.4 28.5-11.1 11.1-18.5 14.1-36.6 14.8-6.3.3-15.3.1-20-.5Z" style="fill-rule: nonzero; fill: rgb(255, 255, 255);" transform="translate(-9.911 -17.817) scale(1.33829)"/>
    <path d="M637.883 182.841c-3.238 2.984-6.146 11.346-10.063 12.208-1.303.287-3.265-3.923-3.68-4.677-2.543-4.62-4.973-11.927-13.787-10.825-3.889.486-3.822 4.056-4.884 5.019-1.667 1.514-2.788.504-2.869.334-2.1-4.4-10.6-13.9-15.5-17.3-3.7-2.6-4.2-2.7-9.7-1.7-3.2.6-7.6 2-9.8 3.2-4.7 2.4-14.6 10.9-14.6 10.9s-2.918-1.543-8.483 2.659c-3.462 2.615-4.22.774-6.044 1.693-1.286.648-2.203 3.513-4.612 4.015-1.113.211-2.673-2.693-5.067-2.849-2.918-.189-3.176 3.834-8.757 2.983-2.347-.358-1.957-2.276-3.984-3.146-1.731-.743-3.621-.36-3.7-.633-1.161-4.024-4.482-4.579-5.845-4.39-.282.039-1.277-.611-1.365-.949-.975-3.746-1.507-8.08-1.543-12.883-.1-5.2.3-6.6 3.2-10.8 5.3-7.6 11-12.2 21.7-17.6 10.5-5.3 26.307-10.811 33-12.5 2.168-.547 11.282-2.607 14-3.1 22.809-4.14 35.9-1.5 43.4 4.6 2.3 1.9 6 5.8 8.2 8.7 7.548 9.949 10.542 15.709 13.9 22.6 2.885 5.921 6.246 18.747 6.246 18.747s-6.57 3.121-9.363 5.694Z" style="fill-rule: nonzero; fill: rgb(255, 255, 255);" transform="translate(-9.911 -17.817) scale(1.33829)"/>
  </g>
  <g>
    <path d="M362.735 219.125c-.3 0-2.535-33.525-2.535-33.525l-.4-11.5c-.6-14.4.4-21.9 3.8-26.8 1.4-2.1 3.7-6 5.1-8.8 3.1-6.2 7.6-11 12.8-13.8 6.2-3.3 24.3-3 44 .8 8.3 1.6 17 2.9 19.5 2.9 4.2.1 4.5-.1 4.5-2.6 0-4 2.5-5.8 9.6-6.8 7.4-1.1 15.7.3 18.8 3.1 3 2.9 7.8 20.8 10.5 39.9 7 49.7 4.2 108.8-6 129.2-4.9 9.6-19.3 18-35.4 20.5-13.8 2.1-40.8 1.3-51-1.7-14-4-23-11.1-28.5-22.4-4.7-9.8-6.2-19.8-4.7-31.1 1.5-11.7 3.3-15.2 8.6-16.6 5.9-1.7 13.4-2.1 18.6-1 2.5.6 6.6 1.3 9.2 1.6 3.6.5 5.7 1.5 8.4 4.1 3.6 3.4 3.7 3.5 3.1 9.5-.8 6.7.6 11.2 4.4 14.8 2.8 2.6 7.8 2.7 15.7.5 11.2-3.2 17.2-7.5 20.4-14.5 2.5-5.7 4.2-20.3 3.3-28.6l-.8-6.8-1.2 3.4c-1.4 4.2-4.8 6.9-10.1 8.1-7.5 1.7-34.1 3.2-50.4 2.8-20.2-.4-22.8-1.3-26.8-9.5-1.4-2.9-2.065-5.175-2.465-5.175ZM432.9 194.5c11.9-6.1 13.4-29.8 2.5-38.4-5.3-4.2-23-2.2-27.4 3.1-2.7 3.3-4.9 10.2-5.6 17.8-1 10.4 2.6 15.8 12.6 19.1 3.6 1.2 14.4.3 17.9-1.6Z" style="fill-rule: nonzero; fill: rgb(255, 255, 255);" transform="translate(-9.911 -17.817) scale(1.33829)"/>
    <path d="M609.747 341.481c1.217-2.372 2.415-3.146 4.582-3.146 2.553 0 5.643-2.687 12.897-11.285 5.24-6.18 10.479-11.688 11.554-12.091 5.105-2.015 7.12-.806 8.732 4.97 2.284 8.733 6.18 14.375 10.076 14.375.352 0 .666.008.946.033 2.524-2.119 3.978-2.027 3.534 2.958-2.094 23.462-5.985 42.741-11.466 53.703-6.582 12.897-25.928 24.182-47.558 27.541-7.495 1.14-17.889 1.644-28.519 1.573-1.515.058-2.785.074-3.723.039-.542-.029-1.296-.076-2.207-.138-13.682-.363-26.933-1.66-34.066-3.758-18.809-5.374-30.9-14.913-38.289-30.094-6.314-13.165-8.329-26.6-6.314-41.781.239-1.863.483-3.571.741-5.139.171-1.04 4.148-1.026 4.963-1.541 1.59-1.004 4.415-2.957 6.79-5.142 9.807-9.27 14.106-11.957 18.808-11.419 4.434.403 5.912 2.015 7.121 8.06.94 4.434 6.314 6.449 17.599 6.449l8.7.136s-.011 1.009-.086 2.154c-.083 1.26-.232 2.69-.285 3.218-1.075 9.001.806 15.047 5.911 19.883 3.762 3.493 10.479 3.627 21.093.672 15.046-4.299 23.107-10.076 27.406-19.48.222-.508.58-.738 1.06-.75Z" style="fill-rule: nonzero; fill: rgb(255, 255, 255);" transform="translate(-12.425 -17.603) scale(.99616)"/>
    <path d="M597.026 239.487s2.497-21.018-9.481-29.833c-9.828-7.382-33.654-.481-36.95 3.948-6.494 8.729-7.124 24.763-7.6 25.476 0 0-9.061 6.697-12.017 12.474-4.567 9.135-11.27 9.4-13.554.13-.403-1.746-3.585-4.03-6.271-5.239-2.419-1.075-5.04-3.953-5.981-5.162-2.552-3.09-4.633-1.555-12.022 4.49l-6.517 4.611-.2-1.252-.537-15.45c-.806-19.346.537-29.421 5.105-36.004 1.881-2.822 4.971-8.061 6.851-11.823 4.165-8.329 10.211-14.778 17.197-18.539 8.329-4.434 32.645-4.031 59.111 1.075 11.151 2.149 22.839 3.896 26.197 3.896 5.643.134 6.046-.135 6.046-3.493 0-5.374 3.359-7.792 12.897-9.136 9.942-1.478 21.092.403 25.257 4.165 4.03 3.896 10.479 27.944 14.106 53.603 1.763 12.52 3.064 25.483 3.922 38.463-.372-4.255-.856-6.742-1.447-6.653-5.911.671-10.267.03-13.76-3.866l-3.896-4.165s-5.176 5.473-11.221 6.36c-3.624.532-8.931-3.135-8.931-3.135-2.101 1.033-2.572 3.752-4.26 5.243-5.549 4.902-7.562 7.923-13.473-3.362-3.181-13.583-6.891-11.622-8.571-6.822" style="fill-rule: nonzero; fill: rgb(255, 255, 255);" transform="translate(-12.425 -17.603) scale(.99616)"/>
  </g>
  <g>
    <path d="M193.432 190.684c-.164-.274-2.142-4.414-2.467-10.616-.615-11.703.035-29.718.035-30.568 0-3.5 2.8-11.4 5.8-16.1 2.8-4.6 13.3-12 19.4-13.8 2-.6 14.4-2.5 18.8-.5 5.6 2.5 8.6 5.3 11.2 10.3 2.4 4.7 2 8.8-2.3 22.6-1.6 5.2-2.9 10.2-2.9 11.1 0 2.5 4.7 7.7 8.9 9.8 10.3 5.2 30 4.6 39.2-1.1 4.9-2.9 7.9-7 7.9-10.4 0-1-1.6-5.1-3.5-9.1-4.6-9.2-5.4-15.6-2.6-20 4.4-7 20.9-16.9 29.9-18 9.6-1.1 18.5 5.2 26.8 19.2 4.5 7.4 11.444 23.2 11.444 27.9.1 3.5 3.278 57.517 2.878 57.517-.3 0-.922 3.783-1.222 8.383-1 15.5-5.3 33.3-11 45.7-5.5 12.2-6.2 13.2-12.8 19.4-15.7 14.5-33.1 20.6-58.7 20.6-32.3 0-59.9-10.2-76.9-28.3-7.9-8.5-10.7-15.4-10-25 .9-13 10.5-27.2 20.1-29.6 6.8-1.7 19.1.5 25.6 4.6 2.9 1.8 6.9 6.3 7 7.8 0 2.3 6.3 8.4 9.7 9.6 9.3 3 29.8-2.8 37.9-10.7 8.2-8.1 9-13.5 2.7-16.7-5.7-2.9-10.6-2.8-25.5.4-16.5 3.5-25.6 3.9-37.7 1.5-17.1-3.3-25-9.3-32.6-24.9-2.5-5.1-4.947-10.814-5.068-11.016Z" style="fill-rule: nonzero; fill: rgb(255, 255, 255);" transform="translate(-8.841 -17.55) scale(1.33829)"/>
    <path d="M267.39 327.472c.07-.122 7.981-5.503 11.749-4.587 1.881.403 6.314 3.627 9.807 6.986 5.777 5.777 6.449 6.046 10.345 4.702 2.284-.806 6.986-3.627 10.344-6.18 7.658-5.911 11.151-6.045 15.047-.806 1.746 2.284 3.762 4.03 4.568 4.03.94 0 3.896 1.613 6.717 3.493 6.852 4.837 14.375 6.046 27.272 4.434 17.733-2.15 19.346-2.553 22.704-5.643a605.958 605.958 0 0 1 7.524-6.314c2.418-1.881 6.717-5.374 9.672-7.658 7.927-6.582 15.853-5.642 15.853 1.747 0 1.612.537 3.224 1.343 3.493.672.269 1.478 1.746 1.747 3.359.806 5.373 3.627 7.254 10.21 6.985 7.389-.403 9.539-1.477 18.137-9.001 10.613-9.269 15.718-8.866 17.868 1.478.806 4.031 4.97 7.658 8.866 7.658 1.071 0 2.352.737 2.911 1.652 1.538-.621 3.01.686 2.94.972-2.55 10.446-5.855 20.368-9.613 28.543-7.389 16.39-8.329 17.733-17.196 26.063-21.092 19.48-44.468 27.675-78.861 27.675-43.393 0-80.472-13.704-103.311-38.02-10.613-11.419-14.375-20.689-13.434-33.586.505-7.302 3.054-14.886 6.791-21.475Z" style="fill-rule: nonzero; fill: rgb(255, 255, 255);" transform="translate(-12.425 -17.603) scale(.99616)"/>
    <path d="M260.323 244.206a44.523 44.523 0 0 1-.175-2.24c-.826-15.724.048-39.926.048-41.067 0-4.702 3.761-15.315 7.792-21.63 3.761-6.18 17.868-16.121 26.063-18.539 2.687-.806 19.345-3.359 25.257-.672 7.523 3.359 11.553 7.12 15.046 13.838 3.224 6.314 2.687 11.822-3.09 30.361-2.149 6.986-3.896 13.704-3.896 14.913 0 3.358 6.314 10.344 11.957 13.166 13.837 6.985 40.303 6.179 52.663-1.478 6.583-3.896 10.613-9.404 10.613-13.972 0-1.344-2.149-6.852-4.702-12.225-6.18-12.36-7.254-20.958-3.493-26.869 5.911-9.405 28.078-22.705 40.169-24.183 12.897-1.477 24.854 6.986 36.005 25.795 6.045 9.941 15.374 31.168 15.374 37.482.065 2.254 1.766 32.726 1.766 32.726s-8.68 7.518-11.023 8.623c-4.032 1.9-6.138-.437-7.729-5.209-2.418-7.389-5.642-10.21-12.628-11.016-5.105-.538-6.314-.135-9.807 3.224-4.971 4.836-10.614 8.464-13.3 8.464-3.762 0-7.524-5.643-7.524-11.017 0-2.821-.671-5.105-1.478-5.105-.671 0-4.164 2.15-7.523 4.702-7.12 5.508-9.135 5.777-13.3 1.881l-3.09-2.821-5.642 6.18c-6.583 7.254-12.763 8.463-16.525 3.224-1.075-1.747-3.493-4.836-5.239-6.852-3.225-3.761-3.225-3.761-8.33-1.746-2.821 1.209-6.045 3.358-6.986 4.971-1.612 2.283-3.224 2.552-10.747 2.283-6.986-.268-9.001.135-9.942 2.016-2.284 3.896-5.373 2.552-14.24-5.912-9.807-9.404-11.688-9.538-19.211-1.209-4.703 5.105-11.688 9.405-15.181 9.405-.941 0-3.628-2.016-6.046-4.3-6.314-6.717-12.628-9.672-18.271-8.598-2.391.456-3.81 1.344-3.81 1.344s.163 1.679.175 2.062Z" style="fill-rule: nonzero; fill: rgb(255, 255, 255);" transform="translate(-12.425 -17.603) scale(.99616)"/>
  </g>
  <g>
    <path d="M66 313.1c-8.5-1.1-14.7-3.1-16.9-5.6-3.6-4.1-9.6-33.4-11.6-57-.4-3.8-.8-7.2-1-7.5-1-1.6-2-29.3-2-53.5 0-28.2-1.85-48.376 21.583-63.279 9.509-6.049 31.637-11.426 65.371-8.711 36.275 2.92 52.746 11.89 59.246 18.59 6 6.2 7.172 8.044 10.365 17.722 1.216 3.685.35 19.154.535 26.214.164 6.234.67 12.464 0 18.664-.783 7.25-1.8 13.5-5.3 24.8-1.7 5.4-8.9 14.8-15.7 20.2-2.3 1.8-4.6 3.7-5.2 4.2-2.5 2-10.9 5.3-18.2 7.1-5 1.2-16.345 2.29-23.734 2.363-7.105.071-16.39.836-20.356 2.313-1.782.663-3.139 1.409-4.379 3.417-.373.606.291 4.127.586 5.521.897 4.237 1.27 6.538 2.072 9.769 1.513 6.098 5.318 20.764 3.121 25.076-3.962 7.777-13.91 9.641-22.21 10.041-5.4.2-12.7 0-16.3-.4Zm57.7-102.2c11.4-4.2 18.3-15.7 18.3-30.4 0-6.7-.2-7.4-3.5-11.2-4.2-4.9-9.7-7.3-18.6-8-16.9-1.4-27.7 8.1-28.7 25.4-.4 6.4-.1 7.8 2.2 11.7 6.3 10.8 19.9 16.4 30.3 12.5Z" style="fill-rule: nonzero; fill: rgb(255, 255, 255);" transform="translate(-10.125 -18.324) scale(1.33829)"/>
    <path d="M98.4 309.2c-7.33 4.305-19.357 4.866-31.306 3.999-5.597-.406-17.594-3.472-19.294-7.672-2.7-6.6-7.019-26.392-9.419-45.492-1-7.4-.181-8.435 1.419-10.535 3.5-4.4 11.3-10.5 13.5-10.5 1.3 0 3.7 1.3 5.5 3 4.8 4.4 7.2 4.6 12.7 1.4 2.6-1.5 4.9-3.3 5.2-4 .3-.8 1.1-1.4 1.8-1.4.6 0 2-.9 3-2 2.4-2.7 7.1-2.6 8.5.1.7 1.1 1 3.9.8 6.2l-.3 4.2 4.9-.1c3.6 0 5.2-.5 6.5-2.1 1.8-2.3 5.2-4.3 7.5-4.3.8 0 2 1.6 2.7 3.5 1.5 4.1 2.6 4 9.4-.6 6.6-4.4 10.8-3.5 11.9 2.6.7 3.4.8 3.5 5.6 3.5 4.5 0 5.3-.4 9.5-4.4 4.4-4.3 8.1-6.4 9.2-5.2.3.3.8 2 1.2 3.8.5 2.3 1.3 3.4 3.1 3.8l2.683.897s-1.498 1.031-3.306 1.846c-2.751 1.24-6.267 2.47-6.677 2.657-5.7 2.6-17 4.3-30.3 4.5-17 .3-22.1 2.217-25.9 6-.288 1.832 1.1 8.6 3.1 16.7 2 8.2 3.6 16.6 3.7 18.6.2 4.2-2.4 8.4-6.9 11Z" style="fill-rule: nonzero; fill: rgb(255, 255, 255);" transform="translate(-9.911 -17.817) scale(1.33829)"/>
    <path d="M49.619 242.099c-2.405-1.996-3.429-4.458-2.161-22.002.396-5.481 1.281-12.165 2.656-17.565 8.623-33.858 43.942-49.226 105.22-45.784 64.251 3.61 95.134 20.515 101.958 49.551 1.297 5.517.946 10.124.96 15.67.003 1.085-.357 5.117-.334 11.961.013 3.612.107 8.313.137 8.802-.977.279-6.718 4.147-8.139 3.851-1.421-.296-4.344-1.936-6.494-3.645-7.3-5.801-18.936-2.352-25.968 7.697-7.842 11.208-14.799 8.617-17.87-6.655-.573-2.85-8.295-5.881-8.295-7.724 0-6.608-8.755-13.696-11.175-14.921-7.209-3.646-16.771-5.811-26.14-4.996-14.936 1.297-30.979 12.017-30.979 36.288 0 6.413-9.038-8.254-8.277-10.377.936-2.609-2.796-1.095-6.431 2.609-4.926 5.019-16.2 12.388-17.934 11.723-2.946-1.131-.346-9.521 4.37-14.102 4.6-4.466 3.354-6.904-1.9-3.719-1.828 1.108-6.149 3.03-9.604 4.272-4.526 1.627-7.09 3.278-9.175 5.911-5.7 7.197-23.044 3.919-23.044-4.356 0-.739-.621-1.859-1.381-2.489Z" style="fill-rule: nonzero; fill: rgb(255, 255, 255);" transform="translate(-10.728 -17.972) scale(.99616)"/>
  </g>
</svg>